<svg width="30" height="30" viewBox="0 0 30 30" fill="none" xmlns="http://www.w3.org/2000/svg">
<rect width="30" height="30" fill="#E5E5E5"/>
<g id="Desktop - 1">
<rect width="1440" height="1024" transform="translate(-150 -43)" fill="white"/>
<g id="LOGO">
<g id="LOGO_2">
<path id="Vector 1" d="M0.220861 27.1787L20.2209 7.6787C20.6208 7.27869 20.2209 6.01203 19.7209 5.67871C19.5543 5.51204 18.6209 5.47871 18.2209 4.67871C17.7209 2.67871 19.2209 0.678697 21.2209 0.178697C22.8209 -0.221303 23.2209 1.01203 23.2209 1.6787H25.2209L24.7209 2.6787L27.7209 5.6787H28.7209L28.2209 7.1787C28.7209 7.1787 29.7209 7.3787 29.7209 8.1787C29.7209 11.3787 26.7209 11.8454 25.2209 11.6787L24.2209 10.6787C23.8876 10.6787 23.2209 10.5787 23.2209 10.1787C23.2209 9.7787 22.8876 9.6787 22.7209 9.6787L2.72095 29.6787C2.32095 30.0787 1.55428 29.8454 1.22095 29.6787L0.220861 28.6787C-0.179139 28.2787 0.054194 27.512 0.220861 27.1787Z" fill="#E25A3C"/>
<path id="Vector 2" d="M27.0781 29.6004L7.57811 9.60043C7.1781 9.2005 5.91145 9.6004 5.57812 10.1003C5.41146 10.267 5.37813 11.2003 4.57812 11.6003C2.57813 12.1003 0.578111 10.6003 0.0781108 8.60034C-0.321889 7.00034 0.911444 6.60034 1.57811 6.60034V4.60034L2.57811 5.10034L5.57811 2.10034V1.10034L7.07811 1.60034C7.07811 1.10034 7.27811 0.100342 8.07811 0.100342C11.2781 0.100342 11.7448 3.10034 11.5781 4.60034L10.5781 5.60034C10.5781 5.93368 10.4781 6.60034 10.0781 6.60034C9.67811 6.60034 9.57811 6.93368 9.57811 7.10034L29.5781 27.1003C29.9781 27.5003 29.7448 28.267 29.5781 28.6003L28.5781 29.6004C28.1781 30.0004 27.4114 29.7671 27.0781 29.6004Z" fill="#E25A3C"/>
</g>
</g>
</g>
</svg>
