<svg width="25" height="26" viewBox="0 0 25 26" fill="none" xmlns="http://www.w3.org/2000/svg">
<path d="M14.2368 2.03964C13.0459 2.23318 12.2105 2.65467 11.5241 3.40733C10.9451 4.04386 10.5853 4.78791 10.3827 5.76422C10.3041 6.13409 10.2959 6.35774 10.2793 8.0953L10.2628 10.0221H8.62932H7V11.979V13.9359L8.62519 13.9445L10.2462 13.9574L10.2586 18.9766L10.2669 24H12.2105H14.1541V18.968V13.9359H15.7669C16.656 13.9359 17.3797 13.9316 17.3797 13.923C17.4914 13.1402 17.8594 10.078 17.847 10.0522C17.8387 10.035 17.0034 10.0221 15.9902 10.0221H14.15L14.1624 8.41787C14.1748 6.85234 14.1789 6.81363 14.2741 6.56418C14.4684 6.06098 14.8737 5.75992 15.4857 5.6782C15.6511 5.65669 16.2838 5.63519 16.8959 5.63519H18L17.9917 3.88043L17.9793 2.12996L17.4417 2.07835C16.5609 1.99664 14.6504 1.97083 14.2368 2.03964Z" fill="white"/>
</svg>
