<svg width="100" height="100" viewBox="0 0 100 100" fill="none" xmlns="http://www.w3.org/2000/svg">
<rect width="100" height="100" fill="#E5E5E5"/>
<g id="Landing page">
<rect width="1440" height="8988" transform="translate(-633 -6889)" fill="white"/>
<g id="Frame 69">
<rect width="1440" height="857" transform="translate(-633 -205)" fill="white"/>
<g id="Group 4">
<g id="Quote Icon" opacity="0.1">
<path id="&#226;&#128;&#156;" d="M44.1391 50.3516V82H12.7252V73.7949C12.7252 60.9792 13.6629 51.4457 15.5384 45.1941C17.5702 38.7863 22.8058 29.7216 31.2454 18L44.608 25.5018C37.575 37.536 33.5115 45.8193 32.4175 50.3516H44.1391ZM86.8058 50.3516V82H55.3919V73.7949C55.3919 60.9792 56.3296 51.4457 58.2051 45.1941C60.2368 38.7863 65.4725 29.7216 73.912 18L87.2747 25.5018C80.2417 37.536 76.1782 45.8193 75.0842 50.3516H86.8058Z" fill="black"/>
</g>
</g>
</g>
</g>
</svg>
