<svg width="58" height="60" viewBox="0 0 58 60" fill="none" xmlns="http://www.w3.org/2000/svg">
<g id="SVG" clip-path="url(#clip0_1_110)">
<path id="Vector" d="M48.189 18.0366C45.972 18.0366 45.1858 19.9784 45.1858 21.6404C45.1858 23.303 45.972 25.2442 48.189 25.2442C50.4053 25.2442 51.1922 23.303 51.1922 21.6404C51.1922 19.9784 50.4053 18.0366 48.189 18.0366ZM48.189 26.4455C45.6741 26.4455 43.9845 24.5144 43.9845 21.6404C43.9845 18.7663 45.6741 16.8352 48.189 16.8352C50.7033 16.8352 52.3934 18.7663 52.3934 21.6404C52.3934 24.5144 50.7033 26.4455 48.189 26.4455Z" fill="white"/>
<path id="Vector_2" d="M42.1749 46.8676H51.7912C54.1091 46.8676 55.9957 44.9815 55.9957 42.6631V36.4609C55.9957 35.2446 55.0058 34.2541 53.7895 34.2541H48.1916C45.8707 34.2541 43.9828 36.1425 43.9828 38.4629V42.6631C43.9828 44.6218 43.0531 46.0014 42.1749 46.8676ZM51.7912 48.0689H40.379C40.1003 48.0689 39.8589 47.8773 39.794 47.6064C39.7303 47.3349 39.8606 47.0556 40.1099 46.9313C40.2174 46.8766 42.7816 45.542 42.7816 42.6631V38.4629C42.7816 35.4795 45.2082 33.0529 48.1916 33.0529H53.7895C55.6684 33.0529 57.197 34.5815 57.197 36.4609V42.6631C57.197 45.6441 54.7722 48.0689 51.7912 48.0689Z" fill="white"/>
<path id="Vector_3" d="M45.7868 48.0689H35.5759C35.2438 48.0689 34.9753 47.8004 34.9753 47.4682C34.9753 45.1503 36.8613 43.2637 39.1798 43.2637H42.7836V44.465H39.1798C37.7293 44.465 36.5159 45.4987 36.2367 46.8676H45.7868V48.0689Z" fill="white"/>
<path id="Vector_4" d="M52.3897 47.468H51.1884V50.4712H52.3897V47.468Z" fill="white"/>
<path id="Vector_5" d="M43.9806 47.468H42.7793V50.4712H43.9806V47.468Z" fill="white"/>
<path id="Vector_6" d="M9.1459 18.0366C6.92893 18.0366 6.14269 19.9784 6.14269 21.6404C6.14269 23.303 6.92893 25.2442 9.1459 25.2442C11.3623 25.2442 12.1491 23.303 12.1491 21.6404C12.1491 19.9784 11.3623 18.0366 9.1459 18.0366ZM9.1459 26.4455C6.63101 26.4455 4.94141 24.5144 4.94141 21.6404C4.94141 18.7663 6.63101 16.8352 9.1459 16.8352C11.6602 16.8352 13.3504 18.7663 13.3504 21.6404C13.3504 24.5144 11.6602 26.4455 9.1459 26.4455Z" fill="white"/>
<path id="Vector_7" d="M3.54232 34.2541C2.32542 34.2541 1.33556 35.2446 1.33556 36.4609V42.6631C1.33556 44.9815 3.22158 46.8676 5.54005 46.8676H15.1563C14.2782 46.0014 13.3484 44.6218 13.3484 42.6631V38.4629C13.3484 36.1425 11.46 34.2541 9.13971 34.2541H3.54232ZM16.9523 48.0689H5.54005C2.55907 48.0689 0.134277 45.6441 0.134277 42.6631V36.4609C0.134277 34.5815 1.66291 33.0529 3.54232 33.0529H9.13971C12.1231 33.0529 14.5497 35.4795 14.5497 38.4629V42.6631C14.5497 45.542 17.1132 46.8766 17.2225 46.9319C17.47 47.058 17.6003 47.3373 17.5349 47.6082C17.4706 47.8779 17.2303 48.0689 16.9523 48.0689Z" fill="white"/>
<path id="Vector_8" d="M21.7603 48.0689H11.5493V46.8676H21.099C20.8197 45.4987 19.607 44.465 18.1564 44.465H14.5532V43.2637H18.1564C20.4743 43.2637 22.3609 45.1503 22.3609 47.4682C22.3609 47.8004 22.0918 48.0689 21.7603 48.0689Z" fill="white"/>
<path id="Vector_9" d="M6.14269 47.468H4.94141V50.4712H6.14269V47.468Z" fill="white"/>
<path id="Vector_10" d="M14.5515 47.468H13.3502V50.4712H14.5515V47.468Z" fill="white"/>
<path id="Vector_11" d="M28.6608 42.2018C25.0593 42.2018 23.1252 41.979 20.1527 41.4799C19.8253 41.4253 19.6049 41.1153 19.6596 40.7886C19.7142 40.4612 20.0224 40.2384 20.3509 40.2955C23.2562 40.7826 25.1446 41.0006 28.6608 41.0006C31.4435 41.0006 34.5946 40.6156 37.3292 40.2546C37.6584 40.2107 37.9594 40.4432 38.0032 40.7717C38.0465 41.1009 37.8152 41.4024 37.486 41.4457C34.7135 41.8114 31.5162 42.2018 28.6608 42.2018Z" fill="white"/>
<path id="Vector_12" d="M13.8132 30.4027C13.576 30.4027 13.3507 30.261 13.2564 30.0262C13.1321 29.7186 13.2817 29.3685 13.5892 29.2448C17.4736 27.6818 23.2283 26.8212 29.7934 26.8212C35.3493 26.8212 40.5364 27.4734 44.3992 28.6585C44.7163 28.7558 44.8947 29.0916 44.7974 29.4087C44.7007 29.7258 44.3667 29.9054 44.0472 29.8069C40.295 28.6561 35.2327 28.0224 29.7934 28.0224C23.3779 28.0224 17.7829 28.8525 14.0373 30.3595C13.964 30.389 13.8884 30.4027 13.8132 30.4027Z" fill="white"/>
<path id="Vector_13" d="M21.4157 28.3377C21.0836 28.3377 20.8151 28.0687 20.8151 27.7371V25.4649C20.8151 21.5829 23.5198 18.6554 27.1068 18.6554H30.2115C33.7985 18.6554 36.5032 21.5829 36.5032 25.4649V27.5611C36.5032 27.8927 36.2342 28.1618 35.9026 28.1618C35.5704 28.1618 35.3019 27.8927 35.3019 27.5611V25.4649C35.3019 22.2154 33.1607 19.8567 30.2115 19.8567H27.1068C24.157 19.8567 22.0163 22.2154 22.0163 25.4649V27.7371C22.0163 28.0687 21.7473 28.3377 21.4157 28.3377Z" fill="white"/>
<path id="Vector_14" d="M28.6579 10.5437C26.8103 10.5437 26.1544 12.1714 26.1544 13.5649C26.1544 14.9584 26.8103 16.5855 28.6579 16.5855C30.5061 16.5855 31.162 14.9584 31.162 13.5649C31.162 12.1714 30.5061 10.5437 28.6579 10.5437ZM28.6579 17.7868C26.4763 17.7868 24.9531 16.051 24.9531 13.5649C24.9531 11.0782 26.4763 9.34241 28.6579 9.34241C30.8394 9.34241 32.3632 11.0782 32.3632 13.5649C32.3632 16.051 30.8394 17.7868 28.6579 17.7868Z" fill="white"/>
<path id="Vector_15" d="M35.6664 41.5223C35.0567 41.5223 34.4861 41.2845 34.0596 40.8527C33.6362 40.4238 33.408 39.8556 33.4175 39.2537C33.4361 38.0813 34.3365 37.1401 35.512 37.0638C35.682 37.0524 35.8574 37.0458 36.0394 37.0386C37.4257 36.9834 38.8588 36.9262 39.9369 35.0775C40.1952 34.6348 40.4499 34.0894 40.7184 33.5116C41.7851 31.2226 43.2452 28.089 46.917 27.6512C46.9404 27.6482 46.9644 27.647 46.9879 27.647H49.991C54.1 27.647 57.1988 31.0039 57.1988 35.4553V36.6566H55.9975V35.4553C55.9975 31.6268 53.4712 28.8483 49.991 28.8483H47.0239C44.0423 29.2218 42.8554 31.7697 41.8079 34.0191C41.5268 34.6222 41.2613 35.1922 40.9742 35.6829C39.5645 38.1005 37.5548 38.1804 36.0874 38.2386C35.9156 38.2459 35.7498 38.2519 35.5895 38.2627C35.0447 38.2981 34.6272 38.7318 34.6188 39.273C34.6146 39.5498 34.7197 39.8106 34.9143 40.0081C35.1138 40.21 35.381 40.3211 35.6664 40.3211H35.6688C37.4995 40.3163 39.3159 40.0599 40.5285 39.6358C41.504 39.2952 42.6043 38.3978 42.9564 38.0411L43.8117 38.8844C43.4686 39.2316 42.2043 40.3229 40.925 40.7704C39.5729 41.2424 37.6587 41.517 35.6724 41.5223H35.6664Z" fill="white"/>
<path id="Vector_16" d="M21.6673 41.5223H21.6613C19.6744 41.517 17.7595 41.2424 16.4081 40.7704C15.1317 40.3241 13.8644 39.2321 13.522 38.885L14.3761 38.0405C14.7292 38.3978 15.8309 39.2958 16.8051 39.6358C18.0166 40.0599 19.8335 40.3163 21.6643 40.3211H21.6673C21.9526 40.3211 22.2193 40.21 22.4187 40.0081C22.6139 39.8106 22.7184 39.5498 22.7148 39.273C22.7064 38.7318 22.2889 38.2981 21.7436 38.2627C21.5838 38.2519 21.4174 38.2459 21.2457 38.2386C19.7782 38.1804 17.7685 38.1005 16.3582 35.6829C16.0723 35.1928 15.8068 34.6228 15.5257 34.0204C14.4782 31.7704 13.2907 29.2218 10.3085 28.8483H7.34197C3.86186 28.8483 1.33556 31.6268 1.33556 35.4553V36.6566H0.134277V35.4553C0.134277 31.0039 3.23299 27.647 7.34197 27.647H10.3452C10.3686 27.647 10.3926 27.6482 10.416 27.6512C14.0878 28.089 15.5486 31.2238 16.6147 33.5128C16.8838 34.0901 17.1372 34.6348 17.3962 35.0775C18.4742 36.9262 19.908 36.9834 21.2931 37.0386C21.4751 37.0458 21.6517 37.0524 21.8211 37.0638C22.9965 37.1401 23.8969 38.0813 23.9161 39.2537C23.9251 39.8556 23.6969 40.4238 23.2734 40.8527C22.847 41.2845 22.277 41.5223 21.6673 41.5223Z" fill="white"/>
</g>
<defs>
<clipPath id="clip0_1_110">
<rect width="57.7778" height="60" fill="white" transform="translate(0.111084)"/>
</clipPath>
</defs>
</svg>
