<svg width="52" height="60" viewBox="0 0 52 60" fill="none" xmlns="http://www.w3.org/2000/svg">
<g id="SVG" clip-path="url(#clip0_1_66)">
<path id="Vector" d="M24.8459 20.1046C24.7554 20.1046 24.6658 20.0891 24.5792 20.0573C24.3833 19.9854 24.222 19.8379 24.1339 19.6473L18.6743 7.88128C18.4894 7.4837 18.6585 7.01001 19.0518 6.82362C19.4475 6.63573 19.9149 6.80852 20.0982 7.2057L25.2243 18.2519L32.266 14.9135L27.1399 3.86694C26.9558 3.46936 27.1249 2.99567 27.5183 2.80937C27.914 2.62218 28.3812 2.79418 28.5646 3.19136L34.0243 14.9578C34.2091 15.3554 34.04 15.8291 33.6466 16.0155L25.1802 20.0293C25.074 20.0794 24.9607 20.1046 24.8459 20.1046Z" fill="white"/>
<path id="Vector_2" d="M18.6142 8.64592C18.4561 8.64592 18.2988 8.61795 18.1469 8.56243C17.8016 8.43666 17.527 8.18236 17.3712 7.84688L16.8756 6.77802C16.7191 6.44404 16.7025 6.06785 16.8269 5.71957C16.9512 5.37088 17.2028 5.09218 17.5357 4.9345L27.0586 0.418965C27.7423 0.0928658 28.5604 0.392963 28.8822 1.08404L29.3786 2.1545C29.6988 2.84757 29.403 3.67415 28.7186 3.99842L26.8077 4.9046C26.4119 5.09138 25.9454 4.91978 25.7614 4.52251C25.5765 4.12493 25.7457 3.65125 26.139 3.46494L27.8681 2.64489L27.5441 1.94561L18.3861 6.28804L18.7102 6.98731L22.8215 5.0203C23.2157 4.8312 23.6837 4.99588 23.8717 5.39148C24.0605 5.78715 23.8961 6.26235 23.5051 6.45303L19.1956 8.51392C19.0108 8.60164 18.8125 8.64592 18.6142 8.64592Z" fill="white"/>
<path id="Vector_3" d="M24.8375 20.1942L25.1616 20.8931L34.3195 16.551L33.9954 15.8517L24.8375 20.1942ZM25.0672 22.5509C24.5511 22.5509 24.0571 22.2562 23.8234 21.7546L23.327 20.6842C23.327 20.6838 23.327 20.6833 23.3263 20.6833C23.172 20.3483 23.1547 19.9721 23.2782 19.6245C23.4025 19.2759 23.6551 18.9975 23.9879 18.8407L33.5101 14.3251C34.1937 13.9997 35.0119 14.2995 35.3336 14.9902L35.8301 16.0606C36.151 16.7537 35.8552 17.5803 35.17 17.9046L25.647 22.4197C25.4598 22.5086 25.2615 22.5509 25.0672 22.5509Z" fill="white"/>
<path id="Vector_4" d="M14.2368 15.4326L15.5545 18.2712L17.3049 17.4415L15.988 14.6029L14.2368 15.4326ZM15.4577 19.9299C15.3011 19.9299 15.143 19.9024 14.9905 19.8464C14.6467 19.7206 14.3713 19.4667 14.2155 19.1312L12.7263 15.923C12.4061 15.23 12.7019 14.4033 13.3864 14.0791L15.5026 13.0762C16.187 12.7489 17.0044 13.0503 17.3261 13.7413L18.8145 16.9511C19.1355 17.6442 18.8397 18.4708 18.1553 18.795L16.0391 19.7979C15.8542 19.8857 15.6567 19.9299 15.4577 19.9299Z" fill="white"/>
<path id="Vector_5" d="M17.5657 14.2614L18.5735 16.4326L22.433 15.9744L20.3813 11.554L17.5657 14.2614ZM18.1014 18.0843C17.7986 18.0843 17.52 17.9083 17.3894 17.6268L15.9002 14.4178C15.7571 14.108 15.8255 13.74 16.0702 13.5039L20.0878 9.64149C20.2712 9.46513 20.526 9.39017 20.7754 9.43606C21.024 9.48338 21.2348 9.64834 21.3419 9.87989L24.3203 16.2978C24.428 16.5292 24.4186 16.7986 24.2958 17.0223C24.1732 17.2456 23.9513 17.3954 23.6996 17.4254L18.1926 18.0788C18.162 18.0823 18.1314 18.0843 18.1014 18.0843Z" fill="white"/>
<path id="Vector_6" d="M2.1913 22.8733C2.41788 23.3598 2.99374 23.5721 3.47757 23.3427L13.8777 18.412L13.0564 16.6427L2.65624 21.5733C2.17399 21.8024 1.96553 22.3852 2.1913 22.8733ZM3.07161 25.0254C2.11657 25.0254 1.20006 24.4787 0.767378 23.5485C0.172635 22.2672 0.720178 20.7351 1.98833 20.1337L13.1004 14.8653C13.4961 14.6781 13.9619 14.8501 14.1467 15.2473L15.6359 18.4563C15.7249 18.6473 15.7343 18.8659 15.6635 19.0644C15.5934 19.2628 15.4471 19.4243 15.2583 19.514L4.14625 24.7824C3.79775 24.9474 3.43271 25.0254 3.07161 25.0254Z" fill="white"/>
<path id="Vector_7" d="M18.7923 28.8508H34.5262V28.6722C34.5262 27.8937 33.9 27.2605 33.1305 27.2605H20.1894C19.4192 27.2605 18.7923 27.8937 18.7923 28.6722V28.8508ZM35.3128 30.4412H18.0055C17.5705 30.4412 17.2189 30.0851 17.2189 29.646V28.6722C17.2189 27.017 18.5507 25.6702 20.1894 25.6702H33.1305C34.7677 25.6702 36.0996 27.017 36.0996 28.6722V29.646C36.0996 30.0851 35.7479 30.4412 35.3128 30.4412Z" fill="white"/>
<path id="Vector_8" d="M16.4335 32.0315H36.8876V30.4412H16.4335V32.0315ZM37.6743 33.6218H15.6468C15.2118 33.6218 14.8601 33.2658 14.8601 32.8267V29.646C14.8601 29.2069 15.2118 28.8508 15.6468 28.8508H37.6743C38.1093 28.8508 38.461 29.2069 38.461 29.646V32.8267C38.461 33.2658 38.1093 33.6218 37.6743 33.6218Z" fill="white"/>
<path id="Vector_9" d="M40.0355 33.6218H13.2878C12.8528 33.6218 12.5011 33.2657 12.5011 32.8267C12.5011 32.3875 12.8528 32.0315 13.2878 32.0315H40.0355C40.4706 32.0315 40.8222 32.3875 40.8222 32.8267C40.8222 33.2657 40.4706 33.6218 40.0355 33.6218Z" fill="white"/>
<path id="Vector_10" d="M22.8615 59.4418C22.8347 59.4418 22.8071 59.4414 22.7796 59.4406C21.9536 59.4181 21.1984 59.0663 20.6516 58.4506L14.6255 52.7415L5.71931 52.7426C5.28505 52.7426 4.93262 52.3866 4.93262 51.9474C4.93262 51.5083 5.28427 51.1522 5.71931 51.1522L14.9371 51.1511C15.1369 51.1511 15.3296 51.228 15.4752 51.3662L21.7758 57.3397C22.0778 57.6759 22.4327 57.8402 22.8221 57.8511C23.2422 57.8677 23.6497 57.6946 23.9502 57.3906C24.2476 57.09 24.4105 56.6909 24.4105 56.2662C24.4096 55.8413 24.2452 55.4423 23.9479 55.1425L22.8921 54.1124C22.5806 53.8073 22.572 53.3037 22.874 52.988C23.1761 52.6731 23.6733 52.6642 23.9864 52.9685L25.0492 54.0072C25.6534 54.6152 25.9823 55.4139 25.9839 56.2642C25.9846 57.1145 25.6574 57.914 25.0626 58.515C24.4774 59.1067 23.6788 59.4418 22.8615 59.4418Z" fill="white"/>
<path id="Vector_11" d="M50.6552 37.6368L3.13255 37.6332C2.6975 37.6332 2.34583 37.2772 2.34583 36.8381C2.34583 36.3989 2.69829 36.043 3.13255 36.043L50.6552 36.0464C51.0903 36.0464 51.442 36.4025 51.442 36.8416C51.442 37.2807 51.0895 37.6368 50.6552 37.6368Z" fill="white"/>
<path id="Vector_12" d="M38.3691 55.1095C37.5289 55.1095 36.7398 54.7787 36.1459 54.1784L29.5494 47.5115C29.2418 47.2009 29.2418 46.6977 29.5494 46.3871C29.857 46.0765 30.3542 46.0765 30.6618 46.3871L37.2583 53.054C37.8514 53.6535 38.8868 53.6535 39.4799 53.054C39.7773 52.7539 39.94 52.3544 39.94 51.93C39.9393 51.5048 39.7749 51.1057 39.4768 50.806L31.0017 42.2757C30.6941 41.9659 30.6925 41.4624 30.9993 41.1513C31.3053 40.8407 31.8041 40.8391 32.1125 41.149L40.5875 49.6792C41.1839 50.2791 41.5119 51.0777 41.5134 51.9281C41.5143 52.7784 41.1869 53.5775 40.5923 54.1784C39.9983 54.7787 39.2085 55.1095 38.3691 55.1095Z" fill="white"/>
<path id="Vector_13" d="M32.4146 55.9271C32.3918 55.9271 32.3698 55.9267 32.3477 55.9259C31.576 55.9049 30.8601 55.5283 30.2197 54.8065L26.1524 50.6967C25.8449 50.3861 25.8449 49.8829 26.1524 49.5723C26.4593 49.2617 26.9572 49.2617 27.2649 49.5723L31.362 53.7136C31.7309 54.1285 32.0677 54.3274 32.3902 54.3363C32.8245 54.3188 33.2438 54.0219 33.5176 53.7465C33.8149 53.446 33.9785 53.0469 33.9785 52.6221C33.9778 52.1974 33.8133 51.7987 33.5152 51.4985L29.3527 47.3145C29.0443 47.005 29.0428 46.5014 29.3496 46.19C29.6565 45.8787 30.1536 45.8772 30.462 46.187L34.6252 50.3713C35.2223 50.9719 35.5512 51.7706 35.5512 52.6209C35.5519 53.4713 35.2247 54.2703 34.6299 54.8713C33.9462 55.5628 33.1808 55.9271 32.4146 55.9271Z" fill="white"/>
<path id="Vector_14" d="M27.8411 57.7853C27.8143 57.7853 27.7867 57.7849 27.76 57.7841C26.9339 57.7615 26.178 57.4102 25.6312 56.794L22.9233 54.0586C22.6157 53.7481 22.6157 53.2449 22.9233 52.9343C23.2309 52.6236 23.729 52.6236 24.0357 52.9343L26.7735 55.7011C27.0575 56.0198 27.4122 56.1836 27.8017 56.1945C28.2179 56.2151 28.6285 56.038 28.929 55.7341C29.2264 55.4339 29.3893 55.0344 29.3893 54.6096C29.3884 54.1849 29.2248 53.7857 28.9267 53.486L26.1457 50.711C25.8357 50.4023 25.8326 49.8988 26.1378 49.5863C26.4447 49.2733 26.9418 49.2713 27.2502 49.5788L30.0343 52.3565C30.633 52.9594 30.9618 53.7581 30.9627 54.6084C30.9634 55.4584 30.6361 56.2574 30.0414 56.8584C29.4561 57.4502 28.6584 57.7853 27.8411 57.7853Z" fill="white"/>
<path id="Vector_15" d="M22.2361 47.5578C21.4305 47.5578 20.6249 47.2479 20.0112 46.6278C18.7848 45.3873 18.7848 43.3695 20.0112 42.1299L25.8029 36.2759C26.1105 35.9653 26.6086 35.9653 26.9153 36.2759C27.223 36.5866 27.223 37.0898 26.9153 37.4003L21.1236 43.2542C20.5108 43.8743 20.5108 44.8834 21.1236 45.5034C21.7365 46.1235 22.7364 46.1227 23.3492 45.5034L27.7579 41.0469C27.905 40.8978 28.1048 40.814 28.314 40.814H31.4562C31.8912 40.814 32.2429 41.17 32.2429 41.6091C32.2429 42.0482 31.8912 42.4043 31.4562 42.4043H28.6398L24.4616 46.6278C23.848 47.2479 23.0424 47.5578 22.2361 47.5578Z" fill="white"/>
<path id="Vector_16" d="M48.2709 52.7415H40.699C40.2639 52.7415 39.9122 52.3853 39.9122 51.9463C39.9122 51.5071 40.2639 51.1511 40.699 51.1511H48.2709C48.706 51.1511 49.0576 51.5071 49.0576 51.9463C49.0576 52.3853 48.706 52.7415 48.2709 52.7415Z" fill="white"/>
</g>
<defs>
<clipPath id="clip0_1_66">
<rect width="51" height="60" fill="white" transform="translate(0.5)"/>
</clipPath>
</defs>
</svg>
