<svg width="52" height="60" viewBox="0 0 52 60" fill="none" xmlns="http://www.w3.org/2000/svg">
<g id="1111 1">
<g id="Group">
<path id="Vector" d="M23.45 5.04739C18.7321 5.96092 15.0885 9.42333 13.8925 14.1263C13.6156 15.2316 13.5934 15.491 13.5491 18.2993C13.5048 21.2654 13.5048 21.2993 13.1172 22.8218C12.9179 23.6677 12.7407 24.5812 12.7407 24.8632C12.7407 25.9233 13.2944 26.8369 14.2358 27.3557C14.568 27.5361 14.867 27.5925 15.4872 27.5925C15.9191 27.5925 16.2846 27.6263 16.2846 27.6714C16.2846 27.9196 17.5028 29.5324 18.267 30.3105L19.164 31.2128V33.1527V35.0925L18.5882 35.2053C16.9823 35.5211 13.1948 36.2429 12.0208 36.4572C9.75051 36.8745 8.39939 37.4271 7.02612 38.5211C5.6307 39.6376 4.42355 41.5436 3.99164 43.3143C3.86982 43.788 3.44898 46.5286 3.05028 49.3933C2.28613 54.8519 2.28613 54.9083 2.77342 55.179C2.90631 55.2579 10.3818 55.2917 25.5653 55.2917C47.5929 55.2917 48.1577 55.2917 48.4125 55.0775C48.6118 54.9083 48.6672 54.7617 48.6561 54.4233C48.6229 53.4421 47.1721 43.6639 46.9506 42.9421C46.1532 40.303 44.1708 38.1263 41.6569 37.1451C40.7709 36.7955 40.3057 36.694 35.4439 35.7805C33.7716 35.4647 32.2876 35.1827 32.1547 35.1489C31.9 35.1038 31.9 35.0812 31.9 33.1527V31.2128L32.93 30.1414C33.4837 29.5436 34.1371 28.7316 34.3697 28.3369L34.7794 27.6038H35.5879C36.7508 27.5925 37.526 27.1188 38.0576 26.0812C38.3787 25.4496 38.3234 24.2542 37.9025 22.7542C37.5592 21.5361 37.5481 21.4684 37.5481 19.1451C37.5481 17.8369 37.4928 16.3481 37.4374 15.8181C36.9501 11.476 34.3918 7.84438 30.5046 5.99475C29.0427 5.28423 27.7027 4.97972 25.8643 4.92333C24.7789 4.90077 24.048 4.9346 23.45 5.04739ZM26.9717 6.61506C28.7437 6.88573 30.7261 7.74288 31.9886 8.80303L32.3541 9.10754L32.1104 10.2805C31.8446 11.6339 31.8779 12.1752 32.2766 12.9872C32.7749 13.9797 33.5612 14.476 34.7684 14.5662C35.5768 14.6339 35.599 14.6451 35.6876 14.9722C35.743 15.1527 35.8094 15.8632 35.8537 16.5286L35.9201 17.7466L35.2667 17.0925C34.414 16.2466 33.5723 15.6827 32.4648 15.2316C31.6231 14.882 31.5567 14.8256 31.2355 14.2391C30.5932 13.0662 30.4714 12.694 30.3495 11.6564C30.2277 10.5173 30.0948 10.179 29.6075 9.68273C28.0349 8.05867 25.4767 9.28799 25.4767 11.6677C25.4767 11.9045 25.2995 12.6489 25.089 13.3256L24.7014 14.5436L22.5086 14.6113C21.1021 14.6564 20.0833 14.7354 19.6403 14.8481C18.1784 15.2203 16.6058 16.1564 15.6312 17.2278L15.1439 17.7692L15.1993 16.4158C15.2325 15.6714 15.299 14.9835 15.3654 14.8707C15.4651 14.6902 16.938 13.9797 18.4774 13.382C18.865 13.2354 19.6181 13.0662 20.1608 13.0098C21.5562 12.8519 22.3425 12.3669 22.8852 11.3068C23.1842 10.7429 23.162 9.16393 22.8409 8.00227C22.708 7.52859 22.5972 7.08874 22.5972 7.02107C22.5972 6.81807 24.2031 6.50227 25.4213 6.46844C25.7314 6.46844 26.4291 6.52483 26.9717 6.61506ZM21.2904 8.38573C21.534 9.34438 21.5451 10.4948 21.3125 10.8444C21.0689 11.194 20.5041 11.4196 19.8507 11.4196C19.153 11.4196 18.3002 11.6564 17.1817 12.1527C16.6722 12.3782 16.2403 12.5361 16.2071 12.5023C16.0742 12.3782 17.2592 10.6414 18.0566 9.79551C18.865 8.92709 20.7367 7.53987 20.9803 7.61882C21.0468 7.64137 21.1797 7.97972 21.2904 8.38573ZM28.3561 10.7203C28.5444 10.8782 28.633 11.1376 28.7548 11.9609C28.8323 12.5361 29.0538 13.3594 29.231 13.788L29.5522 14.5775H27.9685H26.3848L26.6949 13.585C26.8721 13.0436 27.0493 12.2767 27.0936 11.8707C27.1822 11.0136 27.2818 10.7654 27.6141 10.6301C27.9795 10.4835 28.0903 10.4948 28.3561 10.7203ZM34.6687 12.1188C35.1006 12.9534 35.1117 12.9985 34.8902 12.9985C34.4915 12.9985 33.8935 12.6489 33.7273 12.3105C33.5612 11.9835 33.5058 11.1376 33.6277 10.7993C33.6941 10.6414 33.7384 10.6527 33.9599 10.9346C34.1039 11.1038 34.4251 11.6451 34.6687 12.1188ZM31.5678 16.5963C31.9665 16.7316 32.5645 17.0248 32.9078 17.2391C33.672 17.7015 34.8348 18.9534 35.2557 19.7316C35.6654 20.4985 36.5625 23.7015 36.6289 24.6376C36.6843 25.3369 36.6732 25.4045 36.4074 25.6752C36.197 25.8895 36.0087 25.9684 35.6876 25.9684C35.0452 25.9684 34.8127 25.709 34.5137 24.6714C32.9853 19.3933 32.8081 19.0436 31.0694 18.2203L30.4049 17.9045L25.831 17.8707C21.9438 17.8369 21.1575 17.8594 20.5816 18.0173C19.4631 18.3105 18.4663 19.0775 17.979 20.0248C17.8794 20.2166 17.4585 21.5248 17.0488 22.9008C16.5393 24.6151 16.2182 25.5173 16.052 25.6978C15.7087 26.0699 15.0775 26.0699 14.6566 25.6978C14.2136 25.303 14.2579 24.7391 14.8892 22.4158C15.6091 19.7542 16.196 18.7278 17.5582 17.6564C17.9237 17.3745 18.4774 17.0136 18.7986 16.8669C19.9836 16.3143 20.3933 16.2805 25.8089 16.303C30.7593 16.3369 30.859 16.3369 31.5678 16.5963ZM30.5157 19.7542C31.2798 20.1038 31.6231 20.6339 32.0661 22.1C32.2876 22.8331 32.6863 24.1527 32.9632 25.0324L33.4726 26.6339L33.1625 27.209C32.7638 27.9421 31.8446 29.0699 31.2023 29.6113C30.6486 30.0737 29.2642 30.9308 29.076 30.9308C29.0095 30.9308 28.8545 30.6151 28.7437 30.2316C28.5776 29.7128 28.4447 29.476 28.2232 29.3632C27.9574 29.2053 27.8799 29.2166 27.0603 29.6113C25.8643 30.1865 25.1887 30.1865 24.048 29.6339C23.605 29.4196 23.1842 29.2391 23.1067 29.2391C22.7523 29.2391 22.3868 29.7015 22.2539 30.3105C22.1764 30.6489 22.0767 30.9308 22.0213 30.9308C21.8331 30.9308 20.9914 30.4572 20.3158 29.9722C19.4409 29.3293 18.5106 28.2917 17.9458 27.3218C17.5139 26.6 17.5028 26.5324 17.6468 26.2842C17.7354 26.1376 18.1452 24.8857 18.5549 23.4872C18.9979 21.9647 19.4077 20.7805 19.5738 20.5323C19.7399 20.2842 20.0833 19.991 20.4155 19.8218L20.9803 19.5399H25.521C29.6851 19.5399 30.1059 19.5624 30.5157 19.7542ZM24.5353 31.5624C25.2441 31.7654 25.7203 31.7654 26.4845 31.5624C26.8278 31.4722 27.16 31.382 27.2486 31.3594C27.3372 31.3369 27.459 31.585 27.5809 32.0925C27.8134 32.9722 27.8245 32.9609 26.8278 33.1752C25.9972 33.3557 24.934 33.3331 24.0259 33.1188C23.3171 32.9496 23.2506 32.9158 23.306 32.6902C23.3392 32.5662 23.4278 32.1827 23.4943 31.8557C23.605 31.382 23.6715 31.2805 23.8044 31.3369C23.904 31.3707 24.2363 31.4722 24.5353 31.5624ZM21.224 32.3632C21.6005 32.5549 21.6116 32.5887 21.5562 32.9835C21.4565 33.6151 21.6559 33.9196 22.3647 34.2354C23.8597 34.912 25.2995 35.1151 26.7503 34.8444C27.7913 34.6527 28.7659 34.2917 29.1867 33.9534C29.4636 33.7391 29.4857 33.6602 29.4414 33.1301C29.3971 32.5436 29.3971 32.5436 29.7847 32.3857C30.0062 32.2955 30.2277 32.2166 30.272 32.194C30.3163 32.1714 30.3385 32.8481 30.3274 33.7166L30.2942 35.273L29.5743 35.6339C28.2232 36.2993 27.2708 36.5136 25.532 36.5136C23.7711 36.5136 22.9848 36.3444 21.5783 35.6902L20.7145 35.2955V33.7391C20.7145 32.8707 20.7367 32.1714 20.7699 32.1714C20.792 32.1714 21.0025 32.2617 21.224 32.3632ZM20.8696 37.1451C23.9151 38.6 27.16 38.5662 30.3828 37.0549L31.2355 36.6489L32.6531 36.9083C33.4283 37.0436 34.126 37.1902 34.2036 37.2128C34.3032 37.2579 34.3365 37.9572 34.3365 40.1902V43.1113H25.532H16.7276V40.179V37.2466L16.9823 37.1902C17.6357 37.0211 19.3634 36.7053 19.6181 36.694C19.7732 36.6827 20.338 36.8857 20.8696 37.1451ZM15.1771 40.6075C15.1771 43.8557 15.0996 44.4196 14.5791 45.0173C14.0254 45.6489 13.084 45.694 12.5413 45.1075C12.0319 44.5549 11.9655 44.0699 11.9655 41.0136V38.1489L12.2202 38.0925C12.8404 37.9346 14.6012 37.6075 14.8781 37.5963L15.1771 37.585V40.6075ZM37.4374 37.8105C38.0797 37.9346 38.711 38.0587 38.855 38.0925L39.0986 38.1489V41.0023C39.0875 43.6752 39.0765 43.8782 38.8439 44.4534C38.5338 45.2203 38.1572 45.5136 37.5149 45.5136C36.8283 45.5136 36.3964 45.1752 36.1195 44.397C35.9091 43.8331 35.8869 43.5399 35.8869 40.6865C35.8869 37.8105 35.898 37.585 36.0863 37.585C36.1859 37.585 36.7951 37.6865 37.4374 37.8105ZM10.3042 46.1V53.7128H7.20332C4.51215 53.7128 4.10239 53.6902 4.10239 53.5436C4.10239 52.9008 5.47566 43.8105 5.65285 43.2917C6.28411 41.4196 7.64631 39.7955 9.30752 38.9609C9.82803 38.7015 10.2599 38.4872 10.2821 38.4872C10.2932 38.4872 10.3042 41.9158 10.3042 46.1ZM42.5539 39.4572C43.8497 40.3369 44.935 41.803 45.3891 43.303C45.5663 43.8557 46.9617 53.0699 46.9617 53.6564C46.9617 53.6902 45.5552 53.7015 43.8386 53.6902L40.7044 53.6564L40.6712 46.2128C40.6601 42.1188 40.6712 38.7015 40.7044 38.6339C40.7709 38.4421 41.5793 38.803 42.5539 39.4572ZM34.7684 45.3218C35.0895 46.0887 35.7873 46.7316 36.5625 46.9797C37.2823 47.2278 37.7918 47.2166 38.5227 46.9572L39.0986 46.7542V50.2391V53.7128H38.3234H37.5592L37.526 50.6564L37.4928 47.6L37.227 47.3857C36.9944 47.1827 36.7618 47.1714 34.3143 47.1714H31.6674L31.4016 47.4534L31.1248 47.7241V50.7241V53.7128H29.9066H28.6883V50.7015C28.6883 47.7692 28.6773 47.6902 28.4447 47.4308C28.2121 47.1714 28.19 47.1714 25.532 47.1714C23.4057 47.1714 22.8187 47.2053 22.6415 47.3293C22.4422 47.476 22.4311 47.6902 22.3757 50.5775L22.3204 53.6564L21.1354 53.6902L19.9393 53.7241V50.7241V47.7241L19.6624 47.4534L19.3966 47.1714H16.7276H14.0586L13.7928 47.4534L13.5159 47.7241V50.7241V53.7128H12.7407H11.9655V50.2278V46.7429L12.5524 46.9684C13.2944 47.2617 14.1472 47.194 14.9224 46.7993C15.5758 46.4496 16.0077 45.9647 16.3178 45.2203L16.5393 44.6902H25.521H34.5026L34.7684 45.3218ZM18.2781 51.2316V53.7128H16.7276H15.1771V51.2316V48.7504H16.7276H18.2781V51.2316ZM27.1379 51.2316V53.7128H25.532H23.9262V51.2316V48.7504H25.532H27.1379V51.2316ZM35.8869 51.2316V53.7128H34.2811H32.6752V51.3105C32.6752 49.9797 32.7085 48.8632 32.7528 48.8293C32.786 48.7842 33.5169 48.7504 34.3586 48.7504H35.8869V51.2316Z" fill="white"/>
</g>
</g>
</svg>
