<svg width="52" height="60" viewBox="0 0 52 60" fill="none" xmlns="http://www.w3.org/2000/svg">
<g id="SVG" clip-path="url(#clip0_1_48)">
<path id="Vector" d="M43.3335 2.08628H8.53738C8.04708 2.08628 7.65076 1.68606 7.65076 1.19293C7.65076 0.698893 8.04708 0.299561 8.53738 0.299561H43.3335C43.8238 0.299561 44.2202 0.698893 44.2202 1.19293C44.2202 1.68606 43.8238 2.08628 43.3335 2.08628Z" fill="white"/>
<path id="Vector_2" d="M49.6932 14.806C49.3687 14.806 49.0557 14.6265 48.8997 14.3138L42.5487 1.59412C42.3289 1.1537 42.5052 0.6159 42.9424 0.394346C43.3813 0.173685 43.9133 0.351459 44.1331 0.790993L50.4841 13.5116C50.7041 13.952 50.5276 14.4889 50.0905 14.7114C49.9628 14.7757 49.8263 14.806 49.6932 14.806Z" fill="white"/>
<path id="Vector_3" d="M38.6932 11.6392C38.5619 11.6392 38.4289 11.6106 38.303 11.5472C37.8633 11.3301 37.6824 10.7959 37.8978 10.3527L42.5465 0.799135C42.7611 0.356922 43.2931 0.171096 43.7328 0.390863C44.1726 0.60795 44.3535 1.14308 44.138 1.5862L39.4894 11.139C39.336 11.456 39.0212 11.6392 38.6932 11.6392Z" fill="white"/>
<path id="Vector_4" d="M36.8552 14.8233L36.8588 17.1121C36.8641 20.7106 39.7811 23.6355 43.3622 23.6355H43.3711H43.3702C46.9558 23.63 49.8683 20.6954 49.864 17.0942L49.8604 14.8054L36.8552 14.8233ZM43.3622 25.4222C38.8032 25.4222 35.0925 21.6986 35.0855 17.1157L35.0811 13.9318C35.0801 13.4395 35.4773 13.0384 35.9668 13.0375L50.7453 13.0178C50.9803 13.0178 51.2063 13.1116 51.3722 13.2787C51.5388 13.4458 51.6328 13.6727 51.6328 13.9103L51.6372 17.0916C51.6434 21.6781 47.9355 25.415 43.3738 25.4222H43.3622Z" fill="white"/>
<path id="Vector_5" d="M1.96825 14.8229C1.83526 14.8229 1.70048 14.7925 1.57282 14.7291C1.13482 14.5085 0.957489 13.9715 1.17648 13.5302L7.49289 0.792665C7.71101 0.351344 8.24478 0.17446 8.6828 0.393334C9.12078 0.613995 9.29808 1.15092 9.07909 1.59224L2.76269 14.3298C2.60753 14.6424 2.29453 14.8229 1.96825 14.8229Z" fill="white"/>
<path id="Vector_6" d="M12.9631 11.6258C12.6359 11.6258 12.3211 11.4435 12.1668 11.1282L7.49248 1.58796C7.27526 1.14575 7.45613 0.60972 7.89501 0.391739C8.33212 0.172865 8.86588 0.355115 9.08227 0.79733L13.7566 10.3376C13.9747 10.7798 13.793 11.3158 13.3541 11.5338C13.229 11.5963 13.0942 11.6258 12.9631 11.6258Z" fill="white"/>
<path id="Vector_7" d="M1.80163 14.8233L1.80518 17.1121C1.80961 20.7106 4.72664 23.6355 8.30866 23.6355H8.31753H8.31665C11.9022 23.63 14.8148 20.6954 14.8104 17.0942L14.8068 14.8054L1.80163 14.8233ZM8.30866 25.4222C3.74868 25.4222 0.0381113 21.6977 0.0319048 17.1148L0.0274673 13.9318C0.0265806 13.4395 0.422907 13.0384 0.913218 13.0375L15.6917 13.0178C15.9267 13.0178 16.1528 13.1116 16.3186 13.2787C16.4852 13.4458 16.5793 13.6727 16.5793 13.9103L16.5837 17.0916C16.5898 21.6781 12.882 25.415 8.3202 25.4222H8.30866Z" fill="white"/>
<path id="Vector_8" d="M38.1153 29.4849C38.1198 29.4857 38.1233 29.4857 38.1277 29.4867C38.1242 29.4857 38.1198 29.4857 38.1153 29.4849ZM42.4988 32.0747C42.5033 32.0756 42.5086 32.0765 42.5139 32.0774C42.5095 32.0765 42.5042 32.0756 42.4988 32.0747ZM9.28626 32.031C10.2473 37.2947 13.6893 49.7097 25.5649 57.5838C25.666 57.6508 25.7059 57.6517 25.7848 57.6553C25.8043 57.6517 25.8504 57.6561 25.955 57.5865C37.883 49.682 41.3072 37.1892 42.2364 32.0301C41.3339 31.8746 38.6793 31.4012 37.8094 31.2439C37.234 31.1448 37.0008 30.9598 36.303 27.9143C34.7452 27.0826 27.3888 23.5538 25.7937 22.8392C24.2341 23.5163 16.883 26.9888 15.2667 27.8116C15.2533 27.8598 15.24 27.9143 15.2258 27.9706C14.5591 30.6212 14.4119 31.1251 13.7062 31.2465C12.7512 31.4181 10.1534 31.8809 9.28626 32.031ZM25.8167 59.442C25.7875 59.442 25.7511 59.4411 25.7236 59.4403C25.4355 59.4304 25.0454 59.3794 24.5878 59.0748C11.9736 50.7111 8.44839 37.4894 7.5183 32.1927C7.48816 32.0399 7.47485 31.9265 7.47485 31.8165C7.47485 31.0625 8.02724 30.4149 8.76047 30.3076C8.94222 30.2809 11.2227 29.8761 12.956 29.5662C13.1343 29.0123 13.4047 27.9376 13.5066 27.532C13.6778 26.8521 13.684 26.8262 13.8028 26.6681C14.0856 26.2937 25.3007 20.9836 25.8035 20.9836C26.0419 20.9836 26.1404 20.9836 31.8583 23.736C37.7376 26.5663 37.7483 26.5921 37.9123 27.0245C37.9264 27.0638 37.9388 27.105 37.9487 27.1451C38.1437 28.0171 38.4043 29.0454 38.5693 29.5652C40.0162 29.8252 42.521 30.271 42.7613 30.3076C43.4883 30.4024 44.0504 31.0527 44.0504 31.8165C44.0504 31.9005 44.0434 32.0006 44.0301 32.0828L44.007 32.2096C43.0752 37.4983 39.5428 50.7201 26.9348 59.0766C26.5979 59.3026 26.2326 59.4259 25.854 59.4411C25.8452 59.442 25.8327 59.442 25.8167 59.442Z" fill="white"/>
<path id="Vector_9" d="M18.1446 30.0836C17.813 30.0836 17.4947 29.896 17.3431 29.5734C17.132 29.1286 17.32 28.5961 17.7624 28.3835L19.283 27.6527C25.4966 24.6662 25.5214 24.6663 25.8282 24.6663C25.9904 24.6663 26.2627 24.6663 33.4693 28.1995C33.9099 28.4157 34.0925 28.9508 33.8789 29.3939C33.6661 29.837 33.1341 30.0228 32.6935 29.8067C29.7161 28.346 26.7396 26.9345 25.8211 26.5218C24.9442 26.9113 22.2577 28.2022 20.0464 29.2653L18.524 29.996C18.4017 30.0549 18.2713 30.0836 18.1446 30.0836Z" fill="white"/>
<path id="Vector_10" d="M25.754 49.0068C21.1089 49.0068 17.3309 45.1993 17.3309 40.5198C17.3309 35.8404 21.1089 32.033 25.754 32.033C26.5369 32.033 27.3118 32.141 28.0575 32.3554C28.5292 32.4894 28.8023 32.9843 28.6684 33.4588C28.5345 33.9331 28.0424 34.2092 27.5734 34.0734C26.9838 33.9054 26.372 33.8197 25.754 33.8197C22.0868 33.8197 19.1042 36.8249 19.1042 40.5198C19.1042 44.2148 22.0868 47.2201 25.754 47.2201C29.4212 47.2201 32.4038 44.2148 32.4038 40.5198C32.4038 40.0258 32.8001 39.6265 33.2904 39.6265C33.7807 39.6265 34.1771 40.0258 34.1771 40.5198C34.1771 45.1993 30.3982 49.0068 25.754 49.0068Z" fill="white"/>
<path id="Vector_11" d="M25.8463 43.7576C25.6265 43.7576 25.4136 43.6755 25.2496 43.5254L22.4239 40.9363C22.0621 40.604 22.0346 40.0394 22.3636 39.674C22.6943 39.3096 23.2556 39.2827 23.6173 39.6141L25.7248 41.5466L31.3062 34.1262C31.6006 33.734 32.1574 33.6554 32.5493 33.9547C32.9385 34.2522 33.0157 34.8124 32.7195 35.2063L26.553 43.4048C26.4022 43.604 26.1752 43.7308 25.9279 43.754C25.9013 43.7567 25.8729 43.7576 25.8463 43.7576Z" fill="white"/>
<path id="Vector_12" d="M25.7463 16.3677C25.256 16.3677 24.8597 15.9683 24.8597 15.4743V1.18047C24.8597 0.686442 25.256 0.287109 25.7463 0.287109C26.2367 0.287109 26.633 0.686442 26.633 1.18047V15.4743C26.633 15.9683 26.2367 16.3677 25.7463 16.3677Z" fill="white"/>
</g>
<defs>
<clipPath id="clip0_1_48">
<rect width="52" height="60" fill="white"/>
</clipPath>
</defs>
</svg>
