<svg width="30" height="30" viewBox="0 0 30 30" fill="none" xmlns="http://www.w3.org/2000/svg">
<path d="M29.9314 4.23648C29.8627 3.75684 29.6911 3.2772 29.4508 2.79756C28.6957 1.29012 27.151 0.228064 25.4348 0.0225038C25.0572 -0.0117562 4.87414 -0.0117562 4.49657 0.0567638C3.91304 0.0910238 3.26087 0.330844 2.67735 0.604924C1.33867 1.32438 0.343249 2.69478 0.0686499 4.23648C0 4.54482 0 4.9902 0 15.0626V25.5462L0.0686499 25.8888C0.549199 27.9787 2.02517 29.4518 4.11899 29.8972L4.42792 30H25.5721L25.881 29.8972C27.9748 29.4518 29.4508 27.9787 29.9314 25.8888L30 25.5462V15.0626C30 4.9902 30 4.54482 29.9314 4.23648ZM14.3135 5.43558C14.4508 5.29854 14.5538 5.29854 15.0687 5.29854C15.3433 5.29854 15.7551 5.3328 15.9611 5.36706C17.0595 5.5041 17.9519 5.77818 18.9474 6.25782C19.9085 6.73746 20.5263 7.18284 21.3501 7.97082C22.1053 8.7588 22.5172 9.30696 22.9634 10.232C23.6156 11.4653 23.9588 12.9728 24.0275 14.6173C24.0618 15.1654 24.0275 15.3025 23.8902 15.4738C23.6499 15.7821 23.135 15.7136 22.9291 15.371C22.8604 15.2682 22.8604 15.1654 22.8261 14.72C22.8261 14.0348 22.7574 13.5895 22.6545 13.0413C22.2769 10.9514 21.2815 9.30696 19.7025 8.10786C18.3638 7.08006 16.9908 6.60042 15.1716 6.49764C14.5538 6.46338 14.4508 6.42912 14.3135 6.32634C14.0732 6.12078 14.0389 5.6754 14.3135 5.43558ZM18.1236 9.58104C17.4714 9.16992 16.5103 8.89584 15.6522 8.82732C15.3432 8.79306 15.1716 8.72454 15.0343 8.5875C14.8627 8.38194 14.8627 8.10786 15 7.86804C15.1716 7.62822 15.4119 7.59396 16.2014 7.69674C18.1579 7.97082 19.6339 8.89584 20.6293 10.3348C21.2128 11.1913 21.5561 12.1505 21.659 13.1783C21.6934 13.5552 21.6934 14.2747 21.659 14.3774C21.6247 14.4802 21.4874 14.6515 21.3501 14.6858C21.2471 14.7543 20.9725 14.7543 20.8352 14.6858C20.595 14.5487 20.492 14.3432 20.492 13.8293C20.492 12.9728 20.286 12.1163 19.9085 11.4311C19.4966 10.6431 18.8787 10.0264 18.1236 9.58104ZM19.222 13.8293C19.016 14.0006 18.6728 14.0348 18.4668 13.8635C18.2952 13.7265 18.2609 13.6237 18.2265 13.2811C18.1922 12.8357 18.0892 12.5274 17.9863 12.2533C17.6773 11.6366 17.1968 11.3283 16.3387 11.2255C15.9611 11.1913 15.8238 11.157 15.7208 10.9857C15.4805 10.7116 15.5492 10.2662 15.8924 10.0949C15.9954 10.0264 16.0641 10.0264 16.3387 10.0607C16.5103 10.0607 16.7506 10.0949 16.8879 10.1292C17.5057 10.232 17.9863 10.4718 18.3982 10.8829C18.9474 11.3968 19.222 11.9792 19.3593 12.87C19.4622 13.4182 19.4279 13.658 19.222 13.8293ZM23.9931 22.2572C23.7872 22.8739 22.8604 24.0045 22.2082 24.5184C21.6247 24.9638 21.2128 25.1351 20.6636 25.1351C20.2174 25.1693 20.0114 25.1351 19.4279 24.8953C14.9314 23.0452 11.3272 20.2702 8.47826 16.4673C7.00229 14.4802 5.83524 12.4246 5.08009 10.2662C4.63387 9.03288 4.59954 8.48472 4.97712 7.86804C5.14874 7.59396 5.80092 6.90876 6.31579 6.5319C7.13959 5.91522 7.51716 5.70966 7.82609 5.64114C8.03204 5.60688 8.40961 5.64114 8.64989 5.70966C8.75286 5.74392 8.92449 5.8467 9.02746 5.91522C9.64531 6.32634 11.3272 8.48472 11.8764 9.54678C12.1854 10.1977 12.2883 10.6431 12.2197 10.9857C12.1167 11.3283 11.9451 11.5339 11.1556 12.1505C10.881 12.3904 10.5721 12.6302 10.5378 12.6987C10.4348 12.87 10.3318 13.2126 10.3318 13.4524C10.3318 13.9663 10.6751 14.9599 11.1213 15.6793C11.4989 16.2617 12.1167 17.0155 12.7346 17.5979C13.4897 18.2488 14.1419 18.7285 14.8627 19.0711C15.7895 19.5507 16.373 19.6535 16.7849 19.4822C16.8879 19.4137 17.0252 19.3451 17.0595 19.3451C17.0938 19.3109 17.3341 19.0025 17.6087 18.6599C18.1236 18.009 18.2265 17.9062 18.6041 17.7692C19.0503 17.6321 19.4966 17.6664 19.9771 17.9062C20.3204 18.0775 21.1098 18.5572 21.5904 18.8998C22.2426 19.3794 23.6499 20.51 23.8558 20.7498C24.1648 21.1609 24.2334 21.6748 23.9931 22.2572Z" fill="white"/>
</svg>
